# xmcd CD database file generated by freedbAccess_ocx
#
# Track frame offsets:
#       182
#       15867
#       30947
#       44732
#       69685
#       83897
#       133607
#       147767
#       162210
#       178640
#       203377
#       219617
#       254290
#
# Disc length: 3582 seconds
#
# Revision: 0
# Processed by: cddbd v1.4PL0 Copyright (c) Steve Scherf et al.
# Submitted via: CDnGo 1.95
#
DISCID=aa0dfc0d
DTITLE=Barbara Blue Blues Band - Out of the Blue
DYEAR=1994
DGENRE=Blues
TTITLE0=Smoke Rings in the Dark
TTITLE1=Tap on My Window
TTITLE2=No No Baby
TTITLE3=What to Do
TTITLE4=Old Man's Movin' Out
TTITLE5=Out of the Rain/Can't Stand the Rain
TTITLE6=Bed Bug Boogie
TTITLE7=I've Got to Have It
TTITLE8=True Love
TTITLE9=Damn Your Eyes
TTITLE10=Piece of My Heart
TTITLE11=Sweet Love Blues
TTITLE12=Shake
EXTD=
EXTT0=
EXTT1=
EXTT2=
EXTT3=
EXTT4=
EXTT5=
EXTT6=
EXTT7=
EXTT8=
EXTT9=
EXTT10=
EXTT11=
EXTT12=
PLAYORDER=
